<svg id="visual" viewBox="0 0 900 600" width="900" height="600" xmlns="http://www.w3.org/2000/svg" xmlns:xlink="http://www.w3.org/1999/xlink" version="1.1"><g stroke-width="1" stroke-linejoin="bevel"><path d="M455 291.1L468 361.9L522 288.1Z" fill="#2d728f" stroke="#2d728f"></path><path d="M468 361.9L546 364.9L522 288.1Z" fill="#139dad" stroke="#139dad"></path><path d="M327 335.9L443 419.6L468 361.9Z" fill="#a6fdaf" stroke="#a6fdaf"></path><path d="M468 361.9L443 419.6L546 364.9Z" fill="#6fe4b5" stroke="#6fe4b5"></path><path d="M417 154.4L375 248.1L455 291.1Z" fill="#3dc8b8" stroke="#3dc8b8"></path><path d="M455 291.1L327 335.9L468 361.9Z" fill="#6fe4b5" stroke="#6fe4b5"></path><path d="M546 364.9L626 268.1L522 288.1Z" fill="#a6fdaf" stroke="#a6fdaf"></path><path d="M522 288.1L547 176.4L455 291.1Z" fill="#8af1b3" stroke="#8af1b3"></path><path d="M626 268.1L547 176.4L522 288.1Z" fill="#28bab6" stroke="#28bab6"></path><path d="M375 248.1L327 335.9L455 291.1Z" fill="#17acb2" stroke="#17acb2"></path><path d="M443 419.6L575 464.6L546 364.9Z" fill="#28bab6" stroke="#28bab6"></path><path d="M546 364.9L666 360.9L626 268.1Z" fill="#8af1b3" stroke="#8af1b3"></path><path d="M660 418.6L666 360.9L546 364.9Z" fill="#8af1b3" stroke="#8af1b3"></path><path d="M547 176.4L417 154.4L455 291.1Z" fill="#1a8fa5" stroke="#1a8fa5"></path><path d="M375 248.1L275 221.1L327 335.9Z" fill="#8af1b3" stroke="#8af1b3"></path><path d="M626 268.1L622 193.4L547 176.4Z" fill="#24809b" stroke="#24809b"></path><path d="M720 266.1L622 193.4L626 268.1Z" fill="#8af1b3" stroke="#8af1b3"></path><path d="M443 419.6L558 497.3L575 464.6Z" fill="#28bab6" stroke="#28bab6"></path><path d="M575 464.6L660 418.6L546 364.9Z" fill="#28bab6" stroke="#28bab6"></path><path d="M327 335.9L337 440.6L443 419.6Z" fill="#2d728f" stroke="#2d728f"></path><path d="M443 419.6L467 519.3L558 497.3Z" fill="#3dc8b8" stroke="#3dc8b8"></path><path d="M680 490.3L660 418.6L575 464.6Z" fill="#a6fdaf" stroke="#a6fdaf"></path><path d="M337 440.6L467 519.3L443 419.6Z" fill="#139dad" stroke="#139dad"></path><path d="M417 154.4L334 183.4L375 248.1Z" fill="#8af1b3" stroke="#8af1b3"></path><path d="M622 193.4L559 111.7L547 176.4Z" fill="#55d6b7" stroke="#55d6b7"></path><path d="M547 176.4L559 111.7L417 154.4Z" fill="#6fe4b5" stroke="#6fe4b5"></path><path d="M680 490.3L698 413.6L660 418.6Z" fill="#17acb2" stroke="#17acb2"></path><path d="M660 418.6L698 413.6L666 360.9Z" fill="#17acb2" stroke="#17acb2"></path><path d="M666 360.9L719 309.9L626 268.1Z" fill="#3dc8b8" stroke="#3dc8b8"></path><path d="M698 413.6L719 309.9L666 360.9Z" fill="#55d6b7" stroke="#55d6b7"></path><path d="M622 193.4L618 73.7L559 111.7Z" fill="#8af1b3" stroke="#8af1b3"></path><path d="M719 309.9L720 266.1L626 268.1Z" fill="#139dad" stroke="#139dad"></path><path d="M334 183.4L275 221.1L375 248.1Z" fill="#55d6b7" stroke="#55d6b7"></path><path d="M284 466.6L320 504.3L337 440.6Z" fill="#6fe4b5" stroke="#6fe4b5"></path><path d="M284 466.6L337 440.6L238 368.9Z" fill="#24809b" stroke="#24809b"></path><path d="M337 440.6L320 504.3L467 519.3Z" fill="#139dad" stroke="#139dad"></path><path d="M336 60.7L283 181.4L334 183.4Z" fill="#a6fdaf" stroke="#a6fdaf"></path><path d="M334 183.4L283 181.4L275 221.1Z" fill="#55d6b7" stroke="#55d6b7"></path><path d="M336 60.7L334 183.4L417 154.4Z" fill="#2d728f" stroke="#2d728f"></path><path d="M238 368.9L337 440.6L327 335.9Z" fill="#8af1b3" stroke="#8af1b3"></path><path d="M666 542.3L575 464.6L558 497.3Z" fill="#24809b" stroke="#24809b"></path><path d="M666 542.3L680 490.3L575 464.6Z" fill="#17acb2" stroke="#17acb2"></path><path d="M202 451.6L238 368.9L146 355.9Z" fill="#1a8fa5" stroke="#1a8fa5"></path><path d="M275 221.1L238 368.9L327 335.9Z" fill="#6fe4b5" stroke="#6fe4b5"></path><path d="M720 266.1L690 156.4L622 193.4Z" fill="#139dad" stroke="#139dad"></path><path d="M524 0L454 51.7L559 111.7Z" fill="#a6fdaf" stroke="#a6fdaf"></path><path d="M559 111.7L454 51.7L417 154.4Z" fill="#3dc8b8" stroke="#3dc8b8"></path><path d="M690 156.4L618 73.7L622 193.4Z" fill="#24809b" stroke="#24809b"></path><path d="M238 368.9L254 475.3L284 466.6Z" fill="#1a8fa5" stroke="#1a8fa5"></path><path d="M284 466.6L254 475.3L320 504.3Z" fill="#24809b" stroke="#24809b"></path><path d="M615 600L666 542.3L558 497.3Z" fill="#55d6b7" stroke="#55d6b7"></path><path d="M552 600L558 497.3L467 519.3Z" fill="#8af1b3" stroke="#8af1b3"></path><path d="M423 600L552 600L467 519.3Z" fill="#139dad" stroke="#139dad"></path><path d="M320 504.3L423 600L467 519.3Z" fill="#8af1b3" stroke="#8af1b3"></path><path d="M335 600L423 600L320 504.3Z" fill="#6fe4b5" stroke="#6fe4b5"></path><path d="M804 178.4L693 114.7L690 156.4Z" fill="#28bab6" stroke="#28bab6"></path><path d="M690 156.4L693 114.7L618 73.7Z" fill="#24809b" stroke="#24809b"></path><path d="M454 51.7L336 60.7L417 154.4Z" fill="#24809b" stroke="#24809b"></path><path d="M552 600L615 600L558 497.3Z" fill="#3dc8b8" stroke="#3dc8b8"></path><path d="M831 412.6L796 379.9L698 413.6Z" fill="#1a8fa5" stroke="#1a8fa5"></path><path d="M698 413.6L796 379.9L719 309.9Z" fill="#6fe4b5" stroke="#6fe4b5"></path><path d="M719 309.9L846 274.1L720 266.1Z" fill="#24809b" stroke="#24809b"></path><path d="M720 266.1L804 178.4L690 156.4Z" fill="#17acb2" stroke="#17acb2"></path><path d="M831 412.6L698 413.6L680 490.3Z" fill="#2d728f" stroke="#2d728f"></path><path d="M238 368.9L202 451.6L254 475.3Z" fill="#2d728f" stroke="#2d728f"></path><path d="M233 600L335 600L320 504.3Z" fill="#55d6b7" stroke="#55d6b7"></path><path d="M146 355.9L238 368.9L149 226.1Z" fill="#a6fdaf" stroke="#a6fdaf"></path><path d="M233 600L320 504.3L254 475.3Z" fill="#55d6b7" stroke="#55d6b7"></path><path d="M618 73.7L524 0L559 111.7Z" fill="#3dc8b8" stroke="#3dc8b8"></path><path d="M454 51.7L444 0L336 60.7Z" fill="#139dad" stroke="#139dad"></path><path d="M665 0L524 0L618 73.7Z" fill="#3dc8b8" stroke="#3dc8b8"></path><path d="M524 0L444 0L454 51.7Z" fill="#1a8fa5" stroke="#1a8fa5"></path><path d="M615 600L687 600L666 542.3Z" fill="#17acb2" stroke="#17acb2"></path><path d="M788 600L833 537.3L680 490.3Z" fill="#1a8fa5" stroke="#1a8fa5"></path><path d="M244 61.7L191 152.4L283 181.4Z" fill="#6fe4b5" stroke="#6fe4b5"></path><path d="M283 181.4L191 152.4L275 221.1Z" fill="#6fe4b5" stroke="#6fe4b5"></path><path d="M846 274.1L804 178.4L720 266.1Z" fill="#28bab6" stroke="#28bab6"></path><path d="M693 114.7L665 0L618 73.7Z" fill="#8af1b3" stroke="#8af1b3"></path><path d="M149 226.1L238 368.9L275 221.1Z" fill="#a6fdaf" stroke="#a6fdaf"></path><path d="M833 537.3L831 412.6L680 490.3Z" fill="#a6fdaf" stroke="#a6fdaf"></path><path d="M796 379.9L846 274.1L719 309.9Z" fill="#28bab6" stroke="#28bab6"></path><path d="M444 0L343 0L336 60.7Z" fill="#1a8fa5" stroke="#1a8fa5"></path><path d="M336 60.7L244 61.7L283 181.4Z" fill="#2d728f" stroke="#2d728f"></path><path d="M191 152.4L149 226.1L275 221.1Z" fill="#55d6b7" stroke="#55d6b7"></path><path d="M295 0L244 61.7L336 60.7Z" fill="#3dc8b8" stroke="#3dc8b8"></path><path d="M900 365.9L846 274.1L796 379.9Z" fill="#28bab6" stroke="#28bab6"></path><path d="M736 0L665 0L693 114.7Z" fill="#55d6b7" stroke="#55d6b7"></path><path d="M343 0L295 0L336 60.7Z" fill="#6fe4b5" stroke="#6fe4b5"></path><path d="M140 536.3L233 600L254 475.3Z" fill="#3dc8b8" stroke="#3dc8b8"></path><path d="M140 536.3L254 475.3L202 451.6Z" fill="#8af1b3" stroke="#8af1b3"></path><path d="M837 72.7L736 0L693 114.7Z" fill="#a6fdaf" stroke="#a6fdaf"></path><path d="M837 72.7L693 114.7L804 178.4Z" fill="#1a8fa5" stroke="#1a8fa5"></path><path d="M788 600L680 490.3L666 542.3Z" fill="#139dad" stroke="#139dad"></path><path d="M831 412.6L900 365.9L796 379.9Z" fill="#2d728f" stroke="#2d728f"></path><path d="M687 600L788 600L666 542.3Z" fill="#6fe4b5" stroke="#6fe4b5"></path><path d="M79 433.6L202 451.6L146 355.9Z" fill="#24809b" stroke="#24809b"></path><path d="M124 532.3L140 536.3L202 451.6Z" fill="#139dad" stroke="#139dad"></path><path d="M900 466.6L900 365.9L831 412.6Z" fill="#55d6b7" stroke="#55d6b7"></path><path d="M846 274.1L900 190.4L804 178.4Z" fill="#28bab6" stroke="#28bab6"></path><path d="M900 365.9L900 268.1L846 274.1Z" fill="#8af1b3" stroke="#8af1b3"></path><path d="M70 224.1L76 380.9L146 355.9Z" fill="#2d728f" stroke="#2d728f"></path><path d="M140 536.3L177 600L233 600Z" fill="#1a8fa5" stroke="#1a8fa5"></path><path d="M79 433.6L124 532.3L202 451.6Z" fill="#17acb2" stroke="#17acb2"></path><path d="M140 536.3L80 600L177 600Z" fill="#6fe4b5" stroke="#6fe4b5"></path><path d="M211 0L166 49.7L244 61.7Z" fill="#28bab6" stroke="#28bab6"></path><path d="M244 61.7L166 49.7L191 152.4Z" fill="#3dc8b8" stroke="#3dc8b8"></path><path d="M75 142.4L70 224.1L149 226.1Z" fill="#3dc8b8" stroke="#3dc8b8"></path><path d="M149 226.1L70 224.1L146 355.9Z" fill="#24809b" stroke="#24809b"></path><path d="M295 0L211 0L244 61.7Z" fill="#139dad" stroke="#139dad"></path><path d="M76 380.9L79 433.6L146 355.9Z" fill="#28bab6" stroke="#28bab6"></path><path d="M900 190.4L837 72.7L804 178.4Z" fill="#28bab6" stroke="#28bab6"></path><path d="M900 268.1L900 190.4L846 274.1Z" fill="#55d6b7" stroke="#55d6b7"></path><path d="M75 142.4L149 226.1L191 152.4Z" fill="#8af1b3" stroke="#8af1b3"></path><path d="M833 537.3L900 466.6L831 412.6Z" fill="#17acb2" stroke="#17acb2"></path><path d="M900 528.3L900 466.6L833 537.3Z" fill="#24809b" stroke="#24809b"></path><path d="M837 72.7L797 0L736 0Z" fill="#8af1b3" stroke="#8af1b3"></path><path d="M166 49.7L75 142.4L191 152.4Z" fill="#1a8fa5" stroke="#1a8fa5"></path><path d="M72 68.7L75 142.4L166 49.7Z" fill="#139dad" stroke="#139dad"></path><path d="M900 600L900 528.3L833 537.3Z" fill="#6fe4b5" stroke="#6fe4b5"></path><path d="M900 190.4L900 67.7L837 72.7Z" fill="#6fe4b5" stroke="#6fe4b5"></path><path d="M837 72.7L900 0L797 0Z" fill="#3dc8b8" stroke="#3dc8b8"></path><path d="M52 0L72 68.7L166 49.7Z" fill="#a6fdaf" stroke="#a6fdaf"></path><path d="M0 276.1L76 380.9L70 224.1Z" fill="#17acb2" stroke="#17acb2"></path><path d="M0 276.1L0 347.9L76 380.9Z" fill="#28bab6" stroke="#28bab6"></path><path d="M76 380.9L0 419.6L79 433.6Z" fill="#24809b" stroke="#24809b"></path><path d="M0 505.3L80 600L124 532.3Z" fill="#1a8fa5" stroke="#1a8fa5"></path><path d="M0 276.1L70 224.1L0 181.4Z" fill="#8af1b3" stroke="#8af1b3"></path><path d="M0 181.4L70 224.1L75 142.4Z" fill="#3dc8b8" stroke="#3dc8b8"></path><path d="M124 532.3L80 600L140 536.3Z" fill="#1a8fa5" stroke="#1a8fa5"></path><path d="M0 505.3L124 532.3L79 433.6Z" fill="#1a8fa5" stroke="#1a8fa5"></path><path d="M788 600L900 600L833 537.3Z" fill="#17acb2" stroke="#17acb2"></path><path d="M0 347.9L0 419.6L76 380.9Z" fill="#55d6b7" stroke="#55d6b7"></path><path d="M0 48.7L0 181.4L75 142.4Z" fill="#1a8fa5" stroke="#1a8fa5"></path><path d="M900 67.7L900 0L837 72.7Z" fill="#8af1b3" stroke="#8af1b3"></path><path d="M0 419.6L0 505.3L79 433.6Z" fill="#17acb2" stroke="#17acb2"></path><path d="M211 0L52 0L166 49.7Z" fill="#1a8fa5" stroke="#1a8fa5"></path><path d="M72 68.7L0 48.7L75 142.4Z" fill="#2d728f" stroke="#2d728f"></path><path d="M52 0L0 48.7L72 68.7Z" fill="#a6fdaf" stroke="#a6fdaf"></path><path d="M0 505.3L0 600L80 600Z" fill="#3dc8b8" stroke="#3dc8b8"></path><path d="M52 0L0 0L0 48.7Z" fill="#a6fdaf" stroke="#a6fdaf"></path></g></svg>