<svg width="40" height="40" viewBox="0 0 40 40" fill="none" xmlns="http://www.w3.org/2000/svg">
<path d="M31.6667 13.3334L25 20H30C30 25.5167 25.5167 30 20 30C18.3167 30 16.7167 29.5834 15.3334 28.8334L12.9 31.2667C14.95 32.5667 17.3834 33.3334 20 33.3334C27.3667 33.3334 33.3333 27.3667 33.3333 20H38.3333L31.6667 13.3334ZM10 20C10 14.4834 14.4834 10 20 10C21.6834 10 23.2834 10.4167 24.6667 11.1667L27.1 8.73335C25.05 7.43335 22.6167 6.66669 20 6.66669C12.6334 6.66669 6.66669 12.6334 6.66669 20H1.66669L8.33335 26.6667L15 20H10Z" fill="#94949E"/>
</svg>
