<svg width="40" height="40" viewBox="0 0 40 40" fill="none" xmlns="http://www.w3.org/2000/svg">
<path d="M30.4397 21.5667L25.0397 18.8667C27.1897 17.2 28.573 14.6 28.573 11.6667C28.573 6.61667 24.4563 2.5 19.4063 2.5C14.3563 2.5 10.2397 6.61667 10.2397 11.6667C10.2397 15.2167 12.273 18.3 15.2397 19.8167V25.25C11.6563 24.4833 11.873 24.5167 11.473 24.5167C10.5897 24.5167 9.75634 24.8667 9.12301 25.5L6.78967 27.8667L15.273 36.35C15.9897 37.0833 16.9897 37.5 18.023 37.5H28.523C30.1563 37.5 31.5397 36.3333 31.8063 34.7167L33.1397 26.8667C33.5063 24.7 32.423 22.5667 30.4397 21.5667ZM29.8563 26.3167L28.523 34.1667H18.023C17.873 34.1667 17.7397 34.1 17.623 34L11.4897 27.8667L18.573 29.35V11.6667C18.573 11.2 18.9397 10.8333 19.4063 10.8333C19.873 10.8333 20.2397 11.2 20.2397 11.6667V21.6667H23.173L28.9397 24.55C29.6063 24.8833 29.973 25.6 29.8563 26.3167ZM13.573 11.6667C13.573 8.45 16.1897 5.83333 19.4063 5.83333C22.623 5.83333 25.2397 8.45 25.2397 11.6667C25.2397 13.25 24.6063 14.6833 23.573 15.7333V11.6667C23.573 9.36667 21.7063 7.5 19.4063 7.5C17.1063 7.5 15.2397 9.36667 15.2397 11.6667V15.7333C14.2063 14.6833 13.573 13.25 13.573 11.6667Z" fill="#94949E"/>
</svg>
