<svg width="14" height="22" viewBox="0 0 14 22" fill="none" xmlns="http://www.w3.org/2000/svg">
<path d="M7 0C3.13 0 0 3.29212 0 7.36257C0 12.8845 7 21.0359 7 21.0359C7 21.0359 14 12.8845 14 7.36257C14 3.29212 10.87 0 7 0ZM2 7.36257C2 4.45961 4.24 2.10359 7 2.10359C9.76 2.10359 12 4.45961 12 7.36257C12 10.3917 9.12 14.925 7 17.7543C4.92 14.946 2 10.3602 2 7.36257Z" fill="black"/>
<path d="M7 9.99206C8.38071 9.99206 9.5 8.8148 9.5 7.36257C9.5 5.91034 8.38071 4.73308 7 4.73308C5.61929 4.73308 4.5 5.91034 4.5 7.36257C4.5 8.8148 5.61929 9.99206 7 9.99206Z" fill="black"/>
</svg>
