<svg width="292" height="292" viewBox="0 0 292 292" fill="none" xmlns="http://www.w3.org/2000/svg">
<circle opacity="0.3" cx="5.05941" cy="5.05941" r="5.05941" fill="#2D63EB"/>
<circle opacity="0.3" cx="5.05941" cy="36.8612" r="5.05941" fill="#2D63EB"/>
<ellipse opacity="0.3" cx="5.05941" cy="67.9404" rx="5.05941" ry="5.78218" fill="#2D63EB"/>
<circle opacity="0.3" cx="5.05941" cy="99.0194" r="5.05941" fill="#2D63EB"/>
<circle opacity="0.3" cx="5.05941" cy="130.822" r="5.05941" fill="#2D63EB"/>
<circle opacity="0.3" cx="5.05941" cy="161.179" r="5.05941" fill="#2D63EB"/>
<circle opacity="0.3" cx="5.05941" cy="192.98" r="5.05941" fill="#2D63EB"/>
<circle opacity="0.3" cx="5.05941" cy="224.782" r="5.05941" fill="#2D63EB"/>
<circle opacity="0.3" cx="5.05941" cy="255.139" r="5.05941" fill="#2D63EB"/>
<circle opacity="0.3" cx="5.05941" cy="286.94" r="5.05941" fill="#2D63EB"/>
<ellipse opacity="0.3" cx="67.9404" cy="5.05941" rx="5.78218" ry="5.05941" fill="#2D63EB"/>
<ellipse opacity="0.3" cx="67.9404" cy="36.8612" rx="5.78218" ry="5.05941" fill="#2D63EB"/>
<circle opacity="0.3" cx="67.9404" cy="67.9404" r="5.78218" fill="#2D63EB"/>
<ellipse opacity="0.3" cx="67.9404" cy="99.0194" rx="5.78218" ry="5.05941" fill="#2D63EB"/>
<ellipse opacity="0.3" cx="67.9404" cy="130.822" rx="5.78218" ry="5.05941" fill="#2D63EB"/>
<ellipse opacity="0.3" cx="67.9404" cy="161.179" rx="5.78218" ry="5.05941" fill="#2D63EB"/>
<ellipse opacity="0.3" cx="67.9404" cy="192.98" rx="5.78218" ry="5.05941" fill="#2D63EB"/>
<ellipse opacity="0.3" cx="67.9404" cy="224.782" rx="5.78218" ry="5.05941" fill="#2D63EB"/>
<ellipse opacity="0.3" cx="67.9404" cy="255.139" rx="5.78218" ry="5.05941" fill="#2D63EB"/>
<ellipse opacity="0.3" cx="67.9404" cy="286.94" rx="5.78218" ry="5.05941" fill="#2D63EB"/>
<circle opacity="0.3" cx="130.822" cy="5.05941" r="5.05941" fill="#2D63EB"/>
<circle opacity="0.3" cx="130.822" cy="36.8612" r="5.05941" fill="#2D63EB"/>
<ellipse opacity="0.3" cx="130.822" cy="67.9404" rx="5.05941" ry="5.78218" fill="#2D63EB"/>
<circle opacity="0.3" cx="130.822" cy="99.0194" r="5.05941" fill="#2D63EB"/>
<circle opacity="0.3" cx="130.822" cy="130.822" r="5.05941" fill="#2D63EB"/>
<circle opacity="0.3" cx="130.822" cy="161.179" r="5.05941" fill="#2D63EB"/>
<circle opacity="0.3" cx="130.822" cy="192.98" r="5.05941" fill="#2D63EB"/>
<circle opacity="0.3" cx="130.822" cy="224.782" r="5.05941" fill="#2D63EB"/>
<circle opacity="0.3" cx="130.822" cy="255.139" r="5.05941" fill="#2D63EB"/>
<circle opacity="0.3" cx="130.822" cy="286.94" r="5.05941" fill="#2D63EB"/>
<circle opacity="0.3" cx="192.98" cy="5.05941" r="5.05941" fill="#2D63EB"/>
<circle opacity="0.3" cx="192.98" cy="36.8612" r="5.05941" fill="#2D63EB"/>
<ellipse opacity="0.3" cx="192.98" cy="67.9404" rx="5.05941" ry="5.78218" fill="#2D63EB"/>
<circle opacity="0.3" cx="192.98" cy="99.0194" r="5.05941" fill="#2D63EB"/>
<circle opacity="0.3" cx="192.98" cy="130.822" r="5.05941" fill="#2D63EB"/>
<circle opacity="0.3" cx="192.98" cy="161.179" r="5.05941" fill="#2D63EB"/>
<circle opacity="0.3" cx="192.98" cy="192.98" r="5.05941" fill="#2D63EB"/>
<circle opacity="0.3" cx="192.98" cy="224.782" r="5.05941" fill="#2D63EB"/>
<circle opacity="0.3" cx="192.98" cy="255.139" r="5.05941" fill="#2D63EB"/>
<circle opacity="0.3" cx="192.98" cy="286.94" r="5.05941" fill="#2D63EB"/>
<circle opacity="0.3" cx="255.139" cy="5.05941" r="5.05941" fill="#2D63EB"/>
<circle opacity="0.3" cx="255.139" cy="36.8612" r="5.05941" fill="#2D63EB"/>
<ellipse opacity="0.3" cx="255.139" cy="67.9404" rx="5.05941" ry="5.78218" fill="#2D63EB"/>
<circle opacity="0.3" cx="255.139" cy="99.0194" r="5.05941" fill="#2D63EB"/>
<circle opacity="0.3" cx="255.139" cy="130.822" r="5.05941" fill="#2D63EB"/>
<circle opacity="0.3" cx="255.139" cy="161.179" r="5.05941" fill="#2D63EB"/>
<circle opacity="0.3" cx="255.139" cy="192.98" r="5.05941" fill="#2D63EB"/>
<circle opacity="0.3" cx="255.139" cy="224.782" r="5.05941" fill="#2D63EB"/>
<circle opacity="0.3" cx="255.139" cy="255.139" r="5.05941" fill="#2D63EB"/>
<circle opacity="0.3" cx="255.139" cy="286.94" r="5.05941" fill="#2D63EB"/>
<circle opacity="0.3" cx="36.8612" cy="5.05941" r="5.05941" fill="#2D63EB"/>
<circle opacity="0.3" cx="36.8612" cy="36.8612" r="5.05941" fill="#2D63EB"/>
<ellipse opacity="0.3" cx="36.8612" cy="67.9404" rx="5.05941" ry="5.78218" fill="#2D63EB"/>
<circle opacity="0.3" cx="36.8612" cy="99.0194" r="5.05941" fill="#2D63EB"/>
<circle opacity="0.3" cx="36.8612" cy="130.822" r="5.05941" fill="#2D63EB"/>
<circle opacity="0.3" cx="36.8612" cy="161.179" r="5.05941" fill="#2D63EB"/>
<circle opacity="0.3" cx="36.8612" cy="192.98" r="5.05941" fill="#2D63EB"/>
<circle opacity="0.3" cx="36.8612" cy="224.782" r="5.05941" fill="#2D63EB"/>
<circle opacity="0.3" cx="36.8612" cy="255.139" r="5.05941" fill="#2D63EB"/>
<circle opacity="0.3" cx="36.8612" cy="286.94" r="5.05941" fill="#2D63EB"/>
<circle opacity="0.3" cx="99.0199" cy="5.05941" r="5.05941" fill="#2D63EB"/>
<circle opacity="0.3" cx="99.0199" cy="36.8612" r="5.05941" fill="#2D63EB"/>
<ellipse opacity="0.3" cx="99.0199" cy="67.9404" rx="5.05941" ry="5.78218" fill="#2D63EB"/>
<circle opacity="0.3" cx="99.0199" cy="99.0194" r="5.05941" fill="#2D63EB"/>
<circle opacity="0.3" cx="99.0199" cy="130.822" r="5.05941" fill="#2D63EB"/>
<circle opacity="0.3" cx="99.0199" cy="161.179" r="5.05941" fill="#2D63EB"/>
<circle opacity="0.3" cx="99.0199" cy="192.98" r="5.05941" fill="#2D63EB"/>
<circle opacity="0.3" cx="99.0199" cy="224.782" r="5.05941" fill="#2D63EB"/>
<circle opacity="0.3" cx="99.0199" cy="255.139" r="5.05941" fill="#2D63EB"/>
<circle opacity="0.3" cx="99.0199" cy="286.94" r="5.05941" fill="#2D63EB"/>
<circle opacity="0.3" cx="161.178" cy="5.05941" r="5.05941" fill="#2D63EB"/>
<circle opacity="0.3" cx="161.178" cy="36.8612" r="5.05941" fill="#2D63EB"/>
<ellipse opacity="0.3" cx="161.178" cy="67.9404" rx="5.05941" ry="5.78218" fill="#2D63EB"/>
<circle opacity="0.3" cx="161.178" cy="99.0194" r="5.05941" fill="#2D63EB"/>
<circle opacity="0.3" cx="161.178" cy="130.822" r="5.05941" fill="#2D63EB"/>
<circle opacity="0.3" cx="161.178" cy="161.179" r="5.05941" fill="#2D63EB"/>
<circle opacity="0.3" cx="161.178" cy="192.98" r="5.05941" fill="#2D63EB"/>
<circle opacity="0.3" cx="161.178" cy="224.782" r="5.05941" fill="#2D63EB"/>
<circle opacity="0.3" cx="161.178" cy="255.139" r="5.05941" fill="#2D63EB"/>
<circle opacity="0.3" cx="161.178" cy="286.94" r="5.05941" fill="#2D63EB"/>
<circle opacity="0.3" cx="224.782" cy="5.05941" r="5.05941" fill="#2D63EB"/>
<circle opacity="0.3" cx="224.782" cy="36.8612" r="5.05941" fill="#2D63EB"/>
<ellipse opacity="0.3" cx="224.782" cy="67.9404" rx="5.05941" ry="5.78218" fill="#2D63EB"/>
<circle opacity="0.3" cx="224.782" cy="99.0194" r="5.05941" fill="#2D63EB"/>
<circle opacity="0.3" cx="224.782" cy="130.822" r="5.05941" fill="#2D63EB"/>
<circle opacity="0.3" cx="224.782" cy="161.179" r="5.05941" fill="#2D63EB"/>
<circle opacity="0.3" cx="224.782" cy="192.98" r="5.05941" fill="#2D63EB"/>
<circle opacity="0.3" cx="224.782" cy="224.782" r="5.05941" fill="#2D63EB"/>
<circle opacity="0.3" cx="224.782" cy="255.139" r="5.05941" fill="#2D63EB"/>
<circle opacity="0.3" cx="224.782" cy="286.94" r="5.05941" fill="#2D63EB"/>
<circle opacity="0.3" cx="286.941" cy="5.05941" r="5.05941" fill="#2D63EB"/>
<circle opacity="0.3" cx="286.941" cy="36.8612" r="5.05941" fill="#2D63EB"/>
<ellipse opacity="0.3" cx="286.941" cy="67.9404" rx="5.05941" ry="5.78218" fill="#2D63EB"/>
<circle opacity="0.3" cx="286.941" cy="99.0194" r="5.05941" fill="#2D63EB"/>
<circle opacity="0.3" cx="286.941" cy="130.822" r="5.05941" fill="#2D63EB"/>
<circle opacity="0.3" cx="286.941" cy="161.179" r="5.05941" fill="#2D63EB"/>
<circle opacity="0.3" cx="286.941" cy="192.98" r="5.05941" fill="#2D63EB"/>
<circle opacity="0.3" cx="286.941" cy="224.782" r="5.05941" fill="#2D63EB"/>
<circle opacity="0.3" cx="286.941" cy="255.139" r="5.05941" fill="#2D63EB"/>
<circle opacity="0.3" cx="286.941" cy="286.94" r="5.05941" fill="#2D63EB"/>
</svg>
