<svg id="visual" viewBox="0 0 900 600" width="900" height="600" xmlns="http://www.w3.org/2000/svg" xmlns:xlink="http://www.w3.org/1999/xlink" version="1.1"><g stroke-width="1" stroke-linejoin="bevel"><path d="M475 309L389 310L419 393Z" fill="#112e42" stroke="#112e42"></path><path d="M419 393L529 385L475 309Z" fill="#297ea6" stroke="#297ea6"></path><path d="M477 173L440 217L475 309Z" fill="#246688" stroke="#246688"></path><path d="M475 309L440 217L389 310Z" fill="#277297" stroke="#277297"></path><path d="M265 200L272 279L389 310Z" fill="#246688" stroke="#246688"></path><path d="M389 310L258 437L419 393Z" fill="#081a28" stroke="#081a28"></path><path d="M624 261L477 173L475 309Z" fill="#205a7a" stroke="#205a7a"></path><path d="M440 217L265 200L389 310Z" fill="#15384f" stroke="#15384f"></path><path d="M272 279L238 347L389 310Z" fill="#297ea6" stroke="#297ea6"></path><path d="M238 347L258 437L389 310Z" fill="#15384f" stroke="#15384f"></path><path d="M419 393L548 529L529 385Z" fill="#1d4e6b" stroke="#1d4e6b"></path><path d="M258 437L410 539L419 393Z" fill="#112e42" stroke="#112e42"></path><path d="M529 385L624 261L475 309Z" fill="#205a7a" stroke="#205a7a"></path><path d="M238 347L230 396L258 437Z" fill="#205a7a" stroke="#205a7a"></path><path d="M378 107L265 200L440 217Z" fill="#297ea6" stroke="#297ea6"></path><path d="M272 279L232 199L238 347Z" fill="#246688" stroke="#246688"></path><path d="M410 539L548 529L419 393Z" fill="#19435d" stroke="#19435d"></path><path d="M529 385L691 309L624 261Z" fill="#081a28" stroke="#081a28"></path><path d="M548 529L639 436L529 385Z" fill="#19435d" stroke="#19435d"></path><path d="M706 217L629 223L624 261Z" fill="#277297" stroke="#277297"></path><path d="M624 261L629 223L477 173Z" fill="#246688" stroke="#246688"></path><path d="M477 173L378 107L440 217Z" fill="#15384f" stroke="#15384f"></path><path d="M546 89L378 107L477 173Z" fill="#1d4e6b" stroke="#1d4e6b"></path><path d="M231 80L232 199L265 200Z" fill="#205a7a" stroke="#205a7a"></path><path d="M265 200L232 199L272 279Z" fill="#297ea6" stroke="#297ea6"></path><path d="M92 329L141 438L230 396Z" fill="#15384f" stroke="#15384f"></path><path d="M208 504L293 548L258 437Z" fill="#15384f" stroke="#15384f"></path><path d="M258 437L293 548L410 539Z" fill="#00101c" stroke="#00101c"></path><path d="M410 539L540 600L548 529Z" fill="#1d4e6b" stroke="#1d4e6b"></path><path d="M639 436L691 309L529 385Z" fill="#297ea6" stroke="#297ea6"></path><path d="M316 600L398 600L410 539Z" fill="#19435d" stroke="#19435d"></path><path d="M548 529L593 548L639 436Z" fill="#1d4e6b" stroke="#1d4e6b"></path><path d="M558 600L593 548L548 529Z" fill="#00101c" stroke="#00101c"></path><path d="M622 132L477 173L629 223Z" fill="#297ea6" stroke="#297ea6"></path><path d="M622 132L546 89L477 173Z" fill="#00101c" stroke="#00101c"></path><path d="M141 438L208 504L230 396Z" fill="#15384f" stroke="#15384f"></path><path d="M230 396L208 504L258 437Z" fill="#277297" stroke="#277297"></path><path d="M398 600L540 600L410 539Z" fill="#112e42" stroke="#112e42"></path><path d="M706 217L622 132L629 223Z" fill="#297ea6" stroke="#297ea6"></path><path d="M293 548L316 600L410 539Z" fill="#297ea6" stroke="#297ea6"></path><path d="M210 600L316 600L293 548Z" fill="#297ea6" stroke="#297ea6"></path><path d="M540 600L558 600L548 529Z" fill="#00101c" stroke="#00101c"></path><path d="M413 0L320 71L378 107Z" fill="#15384f" stroke="#15384f"></path><path d="M378 107L320 71L265 200Z" fill="#00101c" stroke="#00101c"></path><path d="M740 470L639 436L593 548Z" fill="#00101c" stroke="#00101c"></path><path d="M740 470L717 425L639 436Z" fill="#15384f" stroke="#15384f"></path><path d="M639 436L717 425L691 309Z" fill="#0c2435" stroke="#0c2435"></path><path d="M691 309L706 217L624 261Z" fill="#15384f" stroke="#15384f"></path><path d="M777 276L706 217L691 309Z" fill="#19435d" stroke="#19435d"></path><path d="M92 329L230 396L238 347Z" fill="#1d4e6b" stroke="#1d4e6b"></path><path d="M740 470L753 400L717 425Z" fill="#277297" stroke="#277297"></path><path d="M717 425L753 400L691 309Z" fill="#205a7a" stroke="#205a7a"></path><path d="M320 71L231 80L265 200Z" fill="#081a28" stroke="#081a28"></path><path d="M232 199L92 329L238 347Z" fill="#112e42" stroke="#112e42"></path><path d="M709 600L740 470L593 548Z" fill="#297ea6" stroke="#297ea6"></path><path d="M113 189L92 329L232 199Z" fill="#246688" stroke="#246688"></path><path d="M208 504L210 600L293 548Z" fill="#297ea6" stroke="#297ea6"></path><path d="M146 600L210 600L208 504Z" fill="#205a7a" stroke="#205a7a"></path><path d="M99 470L208 504L141 438Z" fill="#1d4e6b" stroke="#1d4e6b"></path><path d="M544 0L413 0L546 89Z" fill="#081a28" stroke="#081a28"></path><path d="M546 89L413 0L378 107Z" fill="#205a7a" stroke="#205a7a"></path><path d="M320 71L264 0L231 80Z" fill="#0c2435" stroke="#0c2435"></path><path d="M900 354L777 276L753 400Z" fill="#19435d" stroke="#19435d"></path><path d="M753 400L777 276L691 309Z" fill="#112e42" stroke="#112e42"></path><path d="M706 217L698 105L622 132Z" fill="#246688" stroke="#246688"></path><path d="M231 80L113 189L232 199Z" fill="#297ea6" stroke="#297ea6"></path><path d="M764 165L698 105L706 217Z" fill="#277297" stroke="#277297"></path><path d="M621 0L544 0L546 89Z" fill="#246688" stroke="#246688"></path><path d="M92 329L99 470L141 438Z" fill="#19435d" stroke="#19435d"></path><path d="M621 0L546 89L622 132Z" fill="#0c2435" stroke="#0c2435"></path><path d="M777 276L764 165L706 217Z" fill="#205a7a" stroke="#205a7a"></path><path d="M558 600L709 600L593 548Z" fill="#1d4e6b" stroke="#1d4e6b"></path><path d="M413 0L264 0L320 71Z" fill="#297ea6" stroke="#297ea6"></path><path d="M231 80L100 108L113 189Z" fill="#112e42" stroke="#112e42"></path><path d="M99 470L146 600L208 504Z" fill="#0c2435" stroke="#0c2435"></path><path d="M724 0L621 0L698 105Z" fill="#297ea6" stroke="#297ea6"></path><path d="M698 105L621 0L622 132Z" fill="#15384f" stroke="#15384f"></path><path d="M900 209L767 138L764 165Z" fill="#15384f" stroke="#15384f"></path><path d="M764 165L767 138L698 105Z" fill="#15384f" stroke="#15384f"></path><path d="M0 219L0 331L92 329Z" fill="#15384f" stroke="#15384f"></path><path d="M192 0L100 108L231 80Z" fill="#246688" stroke="#246688"></path><path d="M264 0L192 0L231 80Z" fill="#277297" stroke="#277297"></path><path d="M824 600L836 474L740 470Z" fill="#112e42" stroke="#112e42"></path><path d="M740 470L836 474L753 400Z" fill="#297ea6" stroke="#297ea6"></path><path d="M777 276L900 209L764 165Z" fill="#081a28" stroke="#081a28"></path><path d="M0 219L92 329L113 189Z" fill="#081a28" stroke="#081a28"></path><path d="M92 329L0 386L99 470Z" fill="#297ea6" stroke="#297ea6"></path><path d="M99 470L0 512L146 600Z" fill="#297ea6" stroke="#297ea6"></path><path d="M0 331L0 386L92 329Z" fill="#277297" stroke="#277297"></path><path d="M767 138L724 0L698 105Z" fill="#297ea6" stroke="#297ea6"></path><path d="M100 108L0 219L113 189Z" fill="#277297" stroke="#277297"></path><path d="M0 82L0 219L100 108Z" fill="#15384f" stroke="#15384f"></path><path d="M0 386L0 512L99 470Z" fill="#15384f" stroke="#15384f"></path><path d="M836 474L900 354L753 400Z" fill="#112e42" stroke="#112e42"></path><path d="M767 138L831 0L724 0Z" fill="#246688" stroke="#246688"></path><path d="M900 354L900 309L777 276Z" fill="#112e42" stroke="#112e42"></path><path d="M709 600L824 600L740 470Z" fill="#00101c" stroke="#00101c"></path><path d="M836 474L900 531L900 354Z" fill="#246688" stroke="#246688"></path><path d="M192 0L109 0L100 108Z" fill="#246688" stroke="#246688"></path><path d="M900 309L900 209L777 276Z" fill="#297ea6" stroke="#297ea6"></path><path d="M0 512L0 600L146 600Z" fill="#112e42" stroke="#112e42"></path><path d="M109 0L0 82L100 108Z" fill="#1d4e6b" stroke="#1d4e6b"></path><path d="M824 600L900 531L836 474Z" fill="#081a28" stroke="#081a28"></path><path d="M900 89L831 0L767 138Z" fill="#15384f" stroke="#15384f"></path><path d="M900 209L900 89L767 138Z" fill="#277297" stroke="#277297"></path><path d="M824 600L900 600L900 531Z" fill="#00101c" stroke="#00101c"></path><path d="M109 0L0 0L0 82Z" fill="#15384f" stroke="#15384f"></path><path d="M900 89L900 0L831 0Z" fill="#297ea6" stroke="#297ea6"></path></g></svg>