<svg width="32" height="32" viewBox="0 0 32 32" fill="none" xmlns="http://www.w3.org/2000/svg">
<path d="M16.1414 7.11108C12.8708 7.11108 10.2256 9.89331 10.2256 13.3333C10.2256 18 16.1414 24.8889 16.1414 24.8889C16.1414 24.8889 22.0572 18 22.0572 13.3333C22.0572 9.89331 19.412 7.11108 16.1414 7.11108ZM11.9158 13.3333C11.9158 10.88 13.8089 8.88886 16.1414 8.88886C18.4739 8.88886 20.367 10.88 20.367 13.3333C20.367 15.8933 17.933 19.7244 16.1414 22.1155C14.3836 19.7422 11.9158 15.8666 11.9158 13.3333Z" fill="#94949E"/>
<path d="M16.1414 15.5555C17.3083 15.5555 18.2542 14.5606 18.2542 13.3333C18.2542 12.106 17.3083 11.1111 16.1414 11.1111C14.9745 11.1111 14.0286 12.106 14.0286 13.3333C14.0286 14.5606 14.9745 15.5555 16.1414 15.5555Z" fill="#94949E"/>
</svg>
